<?xml version="1.0" encoding="iso-8859-1"?>
<!-- Uploaded to: SVG Repo, www.svgrepo.com, Generator: SVG Repo Mixer Tools -->
<svg fill="#000000" height="800px" width="800px" version="1.1" id="Layer_1" xmlns="http://www.w3.org/2000/svg" xmlns:xlink="http://www.w3.org/1999/xlink" 
	 viewBox="0 0 512.001 512.001" xml:space="preserve">
<g>
	<g>
		<path d="M505.973,311.719L351.077,48.386c-7.793-13.23-25.923-23.594-41.273-23.594h-116.11c-7.498,0-15.864,2.418-23.558,6.807
			c-0.01,0.006-0.02,0.014-0.029,0.019c-7.644,4.368-13.946,10.299-17.749,16.704L6.451,294.06
			c-7.895,13.295-8.633,33.75-1.718,47.58l60.319,120.644c3.311,6.615,9.131,12.795,16.388,17.4c0.009,0.005,0.02,0.009,0.028,0.016
			c7.643,4.843,16.136,7.509,23.923,7.509h301.544c15.432,0,33.451-10.536,41.022-23.988l58.475-103.955
			c3.686-6.553,5.663-15.042,5.565-23.903c0,0,0,0,0-0.001c0,0,0-0.001,0-0.002C511.901,326.551,509.76,318.156,505.973,311.719z
			 M193.694,45.689h116.11c8.076,0,19.167,6.341,23.266,13.298l154.895,263.327c0.48,0.816,0.91,1.727,1.288,2.713H346.181
			L190.27,46.025C191.468,45.804,192.617,45.689,193.694,45.689z M322.244,325.028H174.633l71.142-136.844L322.244,325.028z
			 M83.742,452.935L23.424,332.294c-3.679-7.355-3.203-20.495,0.995-27.566L170.325,58.992c0.501-0.846,1.122-1.697,1.838-2.537
			l61.41,109.894L84.171,453.729C84.017,453.465,83.874,453.199,83.742,452.935z M488.219,349.021l-58.474,103.953
			c-3.93,6.98-14.801,13.338-22.81,13.338H105.391c-1.242,0-2.578-0.181-3.953-0.496l62.329-119.893h325.816
			C489.196,347.055,488.74,348.096,488.219,349.021z"/>
	</g>
</g>
<g>
	<g>
		<path d="M406.267,368.536h-4.678c-5.769,0-10.448,4.678-10.448,10.448c0,5.77,4.679,10.448,10.448,10.448h4.678
			c5.769,0,10.448-4.678,10.448-10.448C416.715,373.213,412.036,368.536,406.267,368.536z"/>
	</g>
</g>
<g>
	<g>
		<path d="M367.788,368.536H266.305c-5.769,0-10.448,4.678-10.448,10.448c0,5.77,4.679,10.448,10.448,10.448h101.483
			c5.769,0,10.448-4.678,10.448-10.448C378.236,373.213,373.558,368.536,367.788,368.536z"/>
	</g>
</g>
</svg>